<?xml version="1.0" encoding="UTF-8"?>
<svg width="571px" height="392px" viewBox="0 0 571 392" version="1.1" xmlns="http://www.w3.org/2000/svg" xmlns:xlink="http://www.w3.org/1999/xlink">
    <!-- Generator: Sketch 59 (86127) - https://sketch.com -->
    <title>Illustration</title>
    <desc>Created with Sketch.</desc>
    <g id="Home-Page-Desktop" stroke="none" stroke-width="1" fill="none" fill-rule="evenodd">
        <g id="Home-Page" transform="translate(-822.000000, -308.000000)" fill-rule="nonzero">
            <g id="Hero">
                <g id="Illustration" transform="translate(821.000000, 308.000000)">
                    <path d="M335.191733,347.358901 L153.945185,241.75503 C151.084938,240.087967 151.084938,235.922933 153.945185,234.257183 L325.458568,134.337079 L517.054815,245.971256 C519.915062,247.637007 519.915062,251.803353 517.054815,253.469104 L355.892432,347.358901 C349.487767,351.09076 341.596398,351.089448 335.191733,347.358901 Z" id="Path" fill="#173D7A" opacity="0.5"></path>
                    <g id="Group" transform="translate(134.200000, 57.258427)">
                        <g id="Path">
                            <path d="M195.492378,14.3538449 C195.502781,2.67750908 187.28443,-2.07975778 177.172239,3.74929408 L5.28843215,102.83406 C2.50819807,104.435877 0.251210289,108.338841 0.248604819,111.548987 C0.246003859,114.759133 2.49778521,116.062726 5.27801929,114.459606 L177.161826,15.3761428 C181.72266,12.7468185 185.428337,14.8916908 185.424432,20.1581532 L185.407511,39.3903779 C188.74223,39.1820115 192.089965,39.1794069 195.471542,39.2380099 L195.492378,14.3538449 Z" fill="#D4ECFF"></path>
                            <path d="M5.21424051,149.04323 L177.098048,86.3757135 C187.210238,80.5466616 195.44551,66.3048137 195.455923,54.628478 L195.470241,39.2380099 C192.089965,39.1794069 188.74223,39.1820115 185.40621,39.3903779 L185.387987,60.4327863 C185.382781,65.6992487 181.669294,72.1208427 177.10846,74.750167 L5.22465338,137.417684 C2.44441929,139.019501 0.188733119,142.922465 0.184826041,146.132611 C0.18222508,149.341455 2.43400643,150.645047 5.21424051,149.04323 Z" fill="#5793CE"></path>
                        </g>
                        <polygon id="Path" fill="#5793CE" points="1.48643601 149.273736 210.5767 270.325536 387.601857 164.696761 401.647506 143.724676 400.189705 151.155545 396.415043 131.700629 67.8085556 144.241685 9.91304437 140.510623"></polygon>
                        <polygon id="Path" fill="#86B8E0" points="8.42010032 112.743187 8.36413119 138.494678 210.447841 255.470309 215.908085 230.927344"></polygon>
                        <polygon id="Path" fill="#D4ECFF" points="399.041687 123.421969 190.284635 2.58244188 2.06825466 112.094647 1.67907395 114.783876 210.744607 235.800515"></polygon>
                        <path d="M332.490485,185.476107 L381.574112,156.345172 C385.70932,153.437158 388.951624,147.561224 388.955529,142.648984 L388.991978,138.7916 C388.994577,135.671312 387.689065,133.659274 385.680684,133.073243 L289.058439,186.85393 L210.37495,229.432315 L210.446539,255.470309 L332.490485,185.476107 Z" id="Path" fill="#FFFFFF"></path>
                        <path d="M217.430966,231.810297 L9.99764887,111.737819 L5.60081801,109.193144 L1.58405659,106.868555 C0.762742122,108.376608 0.247303147,110.037028 0.247303147,111.548987 C0.247303147,113.127363 0.7926791,114.236914 1.67777235,114.77476 L1.67907395,114.783876 L1.71161415,114.803411 L1.72723344,114.812527 L210.743305,235.801817 L217.430966,231.810297 Z" id="Path" fill="#5793CE"></path>
                        <polygon id="Path" fill="#FFFFFF" points="207.969579 268.816181 210.5767 270.325536 211.056993 269.493372 209.433888 268.215825"></polygon>
                        <polygon id="Path" fill="#FFFFFF" points="208.037263 234.22865 210.708162 235.775771 210.039136 234.315904"></polygon>
                        <path d="M214.351362,223.849396 L386.235169,124.765932 C396.347359,118.936881 404.565711,123.694147 404.555308,135.370483 L404.518853,139.227867 C404.50844,150.904203 396.273168,165.146051 386.160977,170.975103 L214.27717,270.058566 C211.496936,271.660383 209.245155,270.356791 209.247756,267.147947 C209.250361,263.937801 211.507349,260.036139 214.287583,258.43302 L386.17139,159.349556 C390.732224,156.720232 394.445711,150.298638 394.450917,145.032176 L394.487362,141.174791 C394.492568,135.908329 390.786891,133.763457 386.224756,136.392781 L214.340949,235.476244 C211.560715,237.078062 209.308934,235.774469 209.311537,232.565625 C209.31414,229.354177 211.571128,225.452515 214.351362,223.849396 Z" id="Path" fill="#D4ECFF"></path>
                        <polygon id="Path" fill="#FFFFFF" points="137.798606 127.785944 227.117531 76.297288 304.581412 121.136449 215.262487 172.625105"></polygon>
                        <g transform="translate(205.654019, 119.810717)" fill="#FFFFFF" id="Path">
                            <path d="M3.59373891,147.33723 C3.59634212,144.127084 5.8533299,140.225422 8.63356399,138.622302 L180.517371,39.538839 C185.078205,36.9095147 188.791691,30.4879207 188.796898,25.2214583 L188.833346,21.3640741 C188.835946,17.9156091 187.242778,15.8189216 184.867344,15.5102787 C185.632689,16.5156469 186.081744,17.9520732 186.079141,19.7700707 L186.042696,23.6287571 C186.037489,28.8952195 182.324003,35.3168135 177.763169,37.9461379 L5.87936206,137.029601 C3.09912797,138.631418 0.842140193,142.534383 0.839535996,145.744529 C0.839535996,148.177207 2.13203344,149.506846 3.96860193,149.315409 C3.73040772,148.773656 3.59373891,148.114697 3.59373891,147.33723 Z"></path>
                            <path d="M3.65751768,112.753606 C3.6601209,109.544762 5.91710868,105.641798 8.69734277,104.038678 L180.58115,4.95391271 C184.936329,2.4430968 188.934868,1.90655315 192.080854,3.03042978 C188.720103,0.162786301 183.583959,0.0403710026 177.826948,3.35990925 L5.94314084,102.443373 C3.16290675,104.04519 0.907220579,107.948154 0.903311838,111.1583 C0.90071254,113.590978 2.19581222,114.920617 4.03238071,114.72918 C3.79288489,114.191334 3.65751768,113.531073 3.65751768,112.753606 Z"></path>
                        </g>
                    </g>
                    <g id="Group" transform="translate(0.000000, 134.337079)">
                        <path d="M50.3813095,95.0866055 L3.22535714,67.8619496 C0.331309524,66.1910987 0.694047619,63.2723474 4.03595238,61.343536 L49.5694048,35.0564422 C52.9113095,33.1276307 57.9660714,32.9181196 60.860119,34.5889705 L108.016071,61.812317 C110.910119,63.4831679 110.547381,66.4019192 107.205476,68.3307306 L61.6720238,94.6178245 C58.3314286,96.5479453 53.2753571,96.7574564 50.3813095,95.0866055 Z" id="Path" fill="#173D7A" opacity="0.5"></path>
                        <path d="M109.955476,48.6497832 L109.955476,48.6497832 L109.955476,32.3799381 L73.4708333,32.3589869 L60.860119,25.0784768 C57.9660714,23.4076259 52.9113095,23.617137 49.5694048,25.5459484 L37.8033333,32.3380358 L1.28595238,32.3183942 L1.28595238,49.0504731 C1.20345238,50.181833 1.83464286,51.2726001 3.22535714,52.0752894 L50.3813095,79.2999453 C53.2753571,80.9707962 58.3314286,80.7612852 61.6720238,78.8324737 L107.205476,52.5453799 C109.134405,51.4336617 110.064167,49.9919636 109.955476,48.6497832 Z" id="Path" fill="#396CAA"></path>
                        <path d="M55.6220238,23.9602114 C53.5045238,24.0112797 51.3058333,24.5455329 49.5694048,25.5472578 L37.8033333,32.3393453 L1.28595238,32.3197036 L1.28595238,49.0517826 C1.20345238,50.1831424 1.83464286,51.2739095 3.22535714,52.0765988 L50.3813095,79.3012548 C51.7720238,80.1039441 53.6629762,80.4679696 55.6220238,80.4208296 L55.6220238,23.9602114 Z" id="Path" fill="#396CAA"></path>
                        <path d="M5.41880952,32.3223225 L1.28595238,32.3197036 L1.28595238,49.0517826 C1.20345238,50.1831424 1.83464286,51.2739095 3.22535714,52.0765988 L5.41880952,53.3428315 L5.41880952,32.3223225 Z" id="Path" fill="#5793CE"></path>
                        <path d="M51.1080952,79.6574236 C53.6040476,80.7272396 57.2144048,80.6670052 60.1346429,79.5539775 L60.1346429,60.5552505 L51.1080952,60.5552505 L51.1080952,79.6574236 Z" id="Path" fill="#5793CE"></path>
                        <path d="M50.3813095,62.6294103 L3.22535714,35.4060638 C0.331309524,33.7352129 0.694047619,30.8164616 4.03595238,28.8876502 L49.5694048,2.60055633 C52.9113095,0.671744913 57.9660714,0.462233829 60.860119,2.13308473 L108.016071,29.3577407 C110.910119,31.0285916 110.547381,33.9473428 107.205476,35.8761543 L61.6720238,62.1632481 C58.3314286,64.0907501 53.2753571,64.3002612 50.3813095,62.6294103 Z" id="Path" fill="#D4ECFF"></path>
                        <path d="M107.206786,32.6732536 L61.6733333,58.9603474 C58.3314286,60.8891588 53.2766667,61.0986699 50.382619,59.427819 L3.22666667,32.2031631 C2.58107143,31.8299715 2.10702381,31.3939265 1.7822619,30.9212171 C0.788333333,32.521358 1.23880952,34.2563717 3.22666667,35.4047543 L50.382619,62.6294103 C53.2766667,64.3002612 58.3327381,64.0907501 61.6733333,62.1619387 L107.206786,35.8748448 C109.803571,34.3755311 110.591905,32.2817297 109.461786,30.6370677 C109.007381,31.3664282 108.253095,32.0682903 107.206786,32.6732536 Z" id="Path" fill="#FFFFFF"></path>
                        <g transform="translate(87.738095, 43.211661)" fill="#D4ECFF" id="Path">
                            <path d="M4.8727381,9.73178986 C4.8727381,10.9456447 4.0202381,12.4226978 2.96869048,13.03028 C1.91714286,13.6378621 1.06464286,13.1455111 1.06464286,11.9303468 C1.06464286,10.716492 1.91714286,9.23943881 2.96869048,8.63185667 C4.0202381,8.02558397 4.8727381,8.51793501 4.8727381,9.73178986 Z"></path>
                            <path d="M11.0013095,6.19498087 C11.0013095,7.40883571 10.1488095,8.88588886 9.0972619,9.493471 C8.04571429,10.1010531 7.19321429,9.6087021 7.19321429,8.39353781 C7.19321429,7.17968296 8.04571429,5.70262982 9.0972619,5.09504768 C10.1488095,4.48746553 11.0013095,4.97981658 11.0013095,6.19498087 Z"></path>
                            <path d="M17.129881,2.65686244 C17.129881,3.87202672 16.277381,5.34777042 15.2258333,5.95535257 C14.1742857,6.56293471 13.3217857,6.07058366 13.3217857,4.85541937 C13.3217857,3.64156453 14.1742857,2.16451139 15.2258333,1.55692924 C16.2760714,0.9493471 17.129881,1.44169815 17.129881,2.65686244 Z"></path>
                        </g>
                        <g transform="translate(30.119048, 15.713331)" id="Path">
                            <path d="M23.0515476,30.0373422 L0.984761905,17.2977589 C-0.369285714,16.5160206 -0.199047619,15.1502703 1.36452381,14.2467537 L22.6717857,1.94583419 C24.2353571,1.04362709 26.6016667,0.945418767 27.9557143,1.727157 L50.0225,14.4667404 C51.3765476,15.2484786 51.207619,16.614229 49.6427381,17.5177455 L28.3354762,29.818665 C26.7705952,30.7221816 24.4055952,30.8190805 23.0515476,30.0373422 Z" fill="#5793CE"></path>
                            <path d="M25.1638095,19.3706092 L22.1113095,17.6080972 C21.9240476,17.4994133 21.947619,17.3108533 22.1636905,17.1864561 L25.1114286,15.4841786 C25.3275,15.3597814 25.654881,15.3453775 25.8421429,15.4540613 L28.8946429,17.2165733 C29.0819048,17.3252572 29.0583333,17.5138172 28.8422619,17.6382144 L25.8945238,19.340492 C25.6784524,19.4648892 25.3510714,19.479293 25.1638095,19.3706092 Z" fill="#D4ECFF"></path>
                            <path d="M0.984761905,17.2977589 L1.04761905,17.3331139 C1.1497619,17.259785 1.24535714,17.1838372 1.36452381,17.1157461 L22.6717857,4.8148266 C24.2353571,3.91131005 26.6016667,3.81441118 27.9557143,4.59614941 L49.9596429,17.2990683 C51.207619,16.4060273 51.2730952,15.1895536 50.0225,14.4667404 L27.9557143,1.727157 C26.6016667,0.945418767 24.2353571,1.04362709 22.6717857,1.94583419 L1.36452381,14.2467537 C-0.200357143,15.1502703 -0.370595238,16.5160206 0.984761905,17.2977589 Z" fill="#396CAA"></path>
                        </g>
                    </g>
                    <g id="Group" transform="translate(413.600000, 292.898876)">
                        <path d="M50.0369048,94.8509056 L2.88095238,67.6275591 C-0.0130952381,65.9567082 0.349642857,63.0379569 3.69154762,61.1091455 L49.225,34.8220516 C52.5669048,32.8932402 57.6216667,32.6837291 60.5157143,34.35458 L107.671667,61.5779265 C110.565714,63.2487774 110.202976,66.1675287 106.861071,68.0963401 L61.327619,94.383434 C57.9857143,96.3122454 52.9309524,96.5217565 50.0369048,94.8509056 Z" id="Path" fill="#173D7A" opacity="0.5"></path>
                        <path d="M109.611071,48.4153927 L109.611071,48.4153927 L109.611071,32.1455475 L73.1264286,32.1245964 L60.5157143,24.8440862 C57.6216667,23.1732353 52.5669048,23.3827464 49.225,25.3128673 L37.4589286,32.1049548 L0.941547619,32.0840036 L0.941547619,48.817392 C0.859047619,49.9487519 1.4902381,51.039519 2.88095238,51.8422083 L50.0369048,79.0668643 C52.9309524,80.7377152 57.9870238,80.5282041 61.3289286,78.5993927 L106.862381,52.3122988 C108.78869,51.1979617 109.718452,49.7562636 109.611071,48.4153927 Z" id="Path" fill="#396CAA"></path>
                        <path d="M55.2763095,23.7245114 C53.1588095,23.7755797 50.960119,24.309833 49.2236905,25.3115578 L37.457619,32.1036453 L0.940238095,32.0826942 L0.940238095,48.8160826 C0.857738095,49.9474425 1.48892857,51.0382095 2.87964286,51.8408989 L50.0355952,79.0655548 C51.4263095,79.8682442 53.3172619,80.2322697 55.2763095,80.1851297 L55.2763095,23.7245114 L55.2763095,23.7245114 Z" id="Path" fill="#396CAA"></path>
                        <path d="M5.07440476,32.0866225 L0.941547619,32.0840036 L0.941547619,48.817392 C0.859047619,49.9487519 1.4902381,51.039519 2.88095238,51.8422083 L5.07440476,53.1084409 L5.07440476,32.0866225 Z" id="Path" fill="#5793CE"></path>
                        <path d="M50.762381,79.4217237 C53.2583333,80.4915396 56.87,80.4313052 59.7889286,79.3182776 L59.7889286,60.3195506 L50.762381,60.3195506 L50.762381,79.4217237 Z" id="Path" fill="#5793CE"></path>
                        <path d="M50.0369048,62.3937103 L2.88095238,35.1690544 C-0.0130952381,33.4982035 0.349642857,30.5794522 3.69154762,28.6506408 L49.225,2.36354692 C52.5669048,0.4347355 57.6216667,0.225224415 60.5157143,1.89607531 L107.671667,29.1194218 C110.565714,30.7902727 110.202976,33.709024 106.861071,35.6378354 L61.327619,61.9249292 C57.9857143,63.8550501 52.9309524,64.0645612 50.0369048,62.3937103 Z" id="Path" fill="#D4ECFF"></path>
                        <path d="M106.861071,32.4375536 L61.327619,58.7246474 C57.9857143,60.6534589 52.9309524,60.8642794 50.0369048,59.192119 L2.88095238,31.9674631 C2.23535714,31.5955809 1.76130952,31.1582265 1.43654762,30.6868266 C0.442619048,32.2869675 0.893095238,34.0219812 2.88095238,35.1703638 L50.0369048,62.3950197 C52.9309524,64.0658706 57.9870238,63.8563596 61.327619,61.9262387 L106.861071,35.6391449 C109.457857,34.1398312 110.24619,32.0460298 109.116071,30.4013677 C108.661667,31.1307282 107.90869,31.8325903 106.861071,32.4375536 Z" id="Path" fill="#FFFFFF"></path>
                        <g transform="translate(87.738095, 43.211661)" fill="#D4ECFF" id="Path">
                            <path d="M4.52833333,9.49608989 C4.52833333,10.7112542 3.67583333,12.1869979 2.62428571,12.79458 C1.5727381,13.4021622 0.720238095,12.9098111 0.720238095,11.6946468 C0.720238095,10.480792 1.5727381,9.00373884 2.62428571,8.3961567 C3.67452381,7.789884 4.52833333,8.28223504 4.52833333,9.49608989 Z"></path>
                            <path d="M10.6555952,5.9592809 C10.6555952,7.17444519 9.80309524,8.65018889 8.7502381,9.25777103 C7.69869048,9.86535317 6.84488095,9.37300213 6.84488095,8.15783784 C6.84488095,6.94267355 7.69738095,5.46692985 8.7502381,4.85934771 C9.80309524,4.25176556 10.6555952,4.74411661 10.6555952,5.9592809 Z"></path>
                            <path d="M16.7841667,2.42116247 C16.7841667,3.63501731 15.9316667,5.11207045 14.880119,5.7196526 C13.8285714,6.32723474 12.9747619,5.83488369 12.9747619,4.6197194 C12.9747619,3.40455512 13.8272619,1.92881142 14.880119,1.32122927 C15.9316667,0.71364713 16.7841667,1.20599818 16.7841667,2.42116247 Z"></path>
                        </g>
                        <g transform="translate(28.809524, 15.713331)" id="Path">
                            <path d="M24.0153571,29.8016423 L1.94857143,17.0620589 C0.59452381,16.2803207 0.763452381,14.9145703 2.32833333,14.0123632 L23.6355952,1.71144367 C25.1991667,0.807927118 27.5654762,0.711028242 28.9195238,1.49276647 L50.9863095,14.2323498 C52.3403571,15.0140881 52.1714286,16.3798384 50.6065476,17.2820456 L29.2992857,29.5829651 C27.7357143,30.4851722 25.3694048,30.5833805 24.0153571,29.8016423 Z" fill="#5793CE"></path>
                            <path d="M26.127619,19.1349092 L23.075119,17.3723972 C22.8878571,17.2637133 22.9114286,17.0751534 23.1275,16.9507561 L26.0752381,15.2484786 C26.2913095,15.1240814 26.6186905,15.1096775 26.8059524,15.2183614 L29.8584524,16.9808734 C30.0457143,17.0895572 30.0221429,17.2781172 29.8060714,17.4025144 L26.8583333,19.104792 C26.6422619,19.2304986 26.314881,19.2435931 26.127619,19.1349092 Z" fill="#D4ECFF"></path>
                            <path d="M1.94857143,17.0620589 L2.01142857,17.0974139 C2.11357143,17.024085 2.20916667,16.9481373 2.32833333,16.8787367 L23.6355952,4.57781719 C25.1991667,3.67430064 27.5654762,3.57740176 28.9195238,4.35913999 L50.9234524,17.0620589 C52.1714286,16.1690179 52.2369048,14.9525442 50.9863095,14.2297309 L28.9195238,1.49014759 C27.5654762,0.708409353 25.1991667,0.806617674 23.6355952,1.70882478 L2.32833333,14.0097443 C0.763452381,14.9145703 0.59452381,16.2803207 1.94857143,17.0620589 Z" fill="#396CAA"></path>
                        </g>
                    </g>
                    <path d="M90.7066418,279.044196 C94.314198,276.962796 100.163481,276.962796 103.772337,279.044196 L272.294333,376.294764 C275.901889,378.376163 275.901889,381.750809 272.294333,383.832209 C268.686777,385.913608 262.836194,385.913608 259.228638,383.832209 L90.7066418,286.581641 C87.0977861,284.500241 87.0977861,281.125595 90.7066418,279.044196 Z" id="Path" fill="#173D7A" opacity="0.5"></path>
                    <g id="Group" transform="translate(73.600000, 240.044944)">
                        <path d="M0.243540351,0.838628559 L0.243540351,0.838628559 C0.389074854,0.590822297 0.676245614,0.46431068 0.956919298,0.52430588 L10.1333895,2.52110265 L6.51971579,8.69147856 L0.317607018,1.61595767 C0.127892398,1.4007575 0.0993052632,1.08643482 0.243540351,0.838628559 Z" id="Path" fill="#D4ECFF"></path>
                        <g transform="translate(2.898246, 1.304243)">
                            <path d="M0.964068458,4.08619483 C0.974561404,2.75717072 1.91663743,1.14903851 3.0679193,0.49430828 C3.60067953,0.191723792 4.07886433,0.155204974 4.444,0.323452384 C15.0472281,0.237372314 25.4763345,3.03888731 34.6177205,8.43193411 L35.2804222,8.82320716 L23.8832515,28.2851284 L20.5177661,26.0457423 C13.3943719,21.3048173 7.39107368,15.057491 2.92758246,7.74068507 L1.48653099,5.37870012 C1.16167719,5.13871932 0.958968421,4.70049351 0.964068458,4.08619483 Z" id="Path" fill="#3F3F3F"></path>
                            <ellipse id="Oval" fill="#D4ECFF" transform="translate(29.598835, 18.563378) rotate(-59.550142) translate(-29.598835, -18.563378) " cx="29.5988349" cy="18.5633776" rx="11.27655" ry="6.49960408"></ellipse>
                            <polygon id="Path" fill="#D4ECFF" points="91.5269088 70.5817445 23.8832515 28.2838242 35.2817216 8.82190291 104.994048 47.5853234"></polygon>
                            <path d="M88.8215263,64.4544086 C88.8683053,58.4405419 93.1316865,51.1602548 98.3436409,48.1931009 C103.556895,45.225947 107.743611,47.6974884 107.696832,53.7113551 C107.650053,59.7252218 103.386671,67.0055089 98.174717,69.9726628 C92.9627626,72.9398167 88.7747474,70.4682753 88.8215263,64.4544086 Z" id="Path" fill="#D4ECFF"></path>
                        </g>
                        <g transform="translate(95.156725, 49.561252)">
                            <path d="M0.422309942,18.4746089 C0.469088889,12.4607422 4.73247018,5.18045511 9.94442456,2.21330119 C15.1576784,-0.753852733 19.3443942,1.71768867 19.2976152,7.73155536 C19.2508363,13.7454221 14.987455,21.0257092 9.77420117,23.9928631 C4.5635462,26.9587128 0.375530994,24.4884756 0.422309942,18.4746089 Z" id="Path" fill="#D4ECFF"></path>
                            <polygon id="Rectangle" fill="#D4ECFF" transform="translate(54.589442, 39.483486) rotate(-59.555081) translate(-54.589442, -39.483486) " points="41.3494292 -12.4459984 67.9979473 -12.4891349 67.829455 91.412971 41.180937 91.4561075"></polygon>
                            <path d="M89.9130351,71.2716893 C89.959814,65.2578226 94.2231953,57.9775355 99.4351497,55.0103816 C104.648404,52.0432277 108.835119,54.5147691 108.78834,60.5286358 C108.741561,66.5425025 104.47818,73.8227896 99.2662257,76.7899435 C94.0529719,79.7570974 89.8662561,77.285556 89.9130351,71.2716893 Z" id="Path" fill="#D4ECFF"></path>
                            <path d="M93.2902152,69.3492344 C93.4968222,65.7990837 96.3763263,61.3776983 99.7236199,59.4735028 C103.070913,57.5693073 105.616468,58.9022441 105.409861,62.4523949 C105.203254,66.0025457 102.32375,70.4239311 98.9764561,72.3281265 C95.630462,74.2336263 93.0849076,72.8993852 93.2902152,69.3492344 Z" id="Path" fill="#396CAA"></path>
                        </g>
                        <g transform="translate(88.659649, 45.648522)" id="Path">
                            <path d="M2.38052865,19.7084233 C2.4273076,13.6945566 6.69068889,6.41426944 11.9039427,3.44841977 C14.0037977,2.25373274 15.929531,1.95375674 17.4875298,2.39980801 C15.7956912,0.624732628 13.0201404,0.416053671 9.86126199,2.21330119 C4.64800819,5.18045511 0.384626901,12.4607422 0.337847953,18.4733047 C0.310560234,22.0651912 1.79969006,24.3802234 4.10745146,25.0401706 C3.0081462,23.8872194 2.36233684,22.0782337 2.38052865,19.7084233 Z" fill="#FFFFFF"></path>
                            <path d="M2.38052865,19.7097275 C2.4273076,13.6958608 6.69068889,6.41557369 11.9026433,3.44841977 C14.5092702,1.96549493 16.8599123,1.8415918 18.5517509,2.8406423 L23.622069,5.83257685 L21.2064561,9.95789899 C20.7659544,15.4278961 17.1184959,21.6556588 12.5718421,24.7023716 L10.1562292,28.8289979 L5.08591111,25.8383676 L5.08591111,25.8383676 C3.3927731,24.8367086 2.35713918,22.7160087 2.38052865,19.7097275 Z" fill="#3F3F3F"></path>
                            <path d="M7.45084678,22.7003578 C7.49762573,16.6864911 11.761007,9.40620399 16.9742608,6.44035431 C22.1862152,3.47320039 26.3742304,5.94474179 26.3274515,11.9586085 C26.2806725,17.9724752 22.0172912,25.2527623 16.8053368,28.218612 C11.5933825,31.1844617 7.40406784,28.7155287 7.45084678,22.7003578 Z" fill="#D4ECFF"></path>
                        </g>
                        <g transform="translate(191.313450, 110.860696)" id="Path">
                            <path d="M0.179319298,8.07587564 C0.200109942,5.48043111 2.03878246,2.33981281 4.28807018,1.06034995 C6.53735789,-0.219112905 8.34354503,0.84645402 8.3240538,3.44189855 C8.30326316,6.03603883 6.46459064,9.17796138 4.21530292,10.4574242 C1.9660152,11.7368871 0.15982807,10.6713202 0.179319298,8.07587564 Z" fill="#FF2C9C"></path>
                            <path d="M0.179141849,8.07587564 C0.200109942,5.48043111 2.03878246,2.33981281 4.28807018,1.06034995 C5.41336374,0.419966401 6.4269076,0.366492418 7.15717895,0.798197011 L26.1247427,11.9886061 C28.854814,13.5993468 29.7670035,17.1260212 28.1622257,19.8649325 C26.557448,22.605148 23.0438292,23.520727 20.3137579,21.9099863 L1.34619415,10.7195772 L1.34619415,10.7195772 C0.615922807,10.2891768 0.168923977,9.37359791 0.179141849,8.07587564 Z" fill="#3F3F3F"></path>
                        </g>
                        <g transform="translate(117.246784, 54.778226)" id="Path">
                            <path d="M53.1642737,29.1354951 L56.0073942,27.5156247 C57.6420585,26.5870034 59.802986,26.8178545 62.0925556,28.1690507 L71.839469,33.9194602 C73.6794409,35.0045908 75.1633731,37.6300329 75.1464807,39.772905 L75.1087977,44.669035 C75.1023006,45.4894042 75.5038199,46.4336764 76.0898561,47.1288382 L75.7247205,49.3969176 L78.1546269,48.0000729 L78.1494292,47.9974644 C78.5002713,47.818783 78.7250702,47.4079463 78.7289684,46.8053858 L78.7669469,41.9092558 C78.8017357,37.4422219 75.7078281,31.9670077 71.8719544,29.7041453 L62.1250409,23.9537358 C58.8687064,22.0325851 55.7955895,21.7026115 53.4709357,23.0251144 L50.6278152,24.6449848 C48.9944503,25.5736062 46.8335228,25.3427551 44.5426538,23.9915589 L5.25223626,0.811239446 C4.74546433,0.511263445 4.28547135,0.486482819 3.95412047,0.684727828 L3.95412047,0.680815098 L1.5294117,2.07505138 L3.60587719,2.87716112 C3.89304795,3.75361274 4.5037731,4.60397949 5.21975088,5.02655438 L44.5101684,28.2068738 C47.7665029,30.1280244 50.8409193,30.457998 53.1642737,29.1354951 Z" fill="#5793CE"></path>
                            <path d="M53.5463018,28.9307289 C55.1809661,28.0021076 57.3418936,28.2329587 59.6301637,29.5841549 L69.3770772,35.3345644 C71.2170491,36.419695 72.6996819,39.0451371 72.6840889,41.1880092 L72.6464058,46.0854434 C72.6373099,47.2488286 73.4403485,48.6717583 74.4408982,49.2612763 C75.4401485,49.8507944 76.2587801,49.3851794 76.267876,48.2217943 L76.3058545,43.3256642 C76.3406433,38.8586303 73.2467357,33.3834162 69.410862,31.1205537 L59.6639485,25.3701442 C56.407614,23.4489936 53.3344971,23.11902 51.0098433,24.4415229 L48.1667228,26.0613933 C46.5333579,26.9900146 44.3724304,26.7591635 42.0815614,25.4079673 L2.79114386,2.22764787 C1.79189357,1.63812981 0.973261988,2.10374474 0.964089568,3.26712992 C0.955070175,4.43051511 1.75810877,5.85344475 2.75865848,6.4429628 L42.049076,29.6232822 C45.3067099,31.5444329 48.3798269,31.8744065 50.7031813,30.5532078 L53.5463018,28.9307289 Z" fill="#5793CE"></path>
                            <path d="M72.8062339,41.9966401 L72.7685509,46.8927702 C72.7685509,46.924072 72.7828444,46.9592866 72.7841439,46.9918927 C72.6944842,46.6840912 72.6451064,46.3762897 72.6464058,46.0841392 L72.6840889,41.1880092 C72.6853883,41.0484551 72.6632982,40.9023798 72.6516035,40.7602173 C72.7451614,41.1801837 72.8101322,41.5975416 72.8062339,41.9966401 Z" fill="#FFFFFF"></path>
                        </g>
                    </g>
                    <polygon id="Path" fill="#173D7A" opacity="0.5" points="308 123.133465 415.173897 184.988764 479.6 147.805361 372.537981 85.8876404"></polygon>
                    <g id="Group" transform="translate(305.800000, 0.000000)">
                        <g id="Path">
                            <path d="M205.338068,87.4534902 L191.179881,79.3069097 L243.381179,49.2696452 C245.846139,47.8507564 245.846139,45.5422985 243.381179,44.1234097 L190.053751,13.437176 C187.587486,12.0182872 183.576218,12.0182872 181.111258,13.437176 L128.90996,43.4744404 L114.751774,35.3278599 L166.953072,5.29059542 C177.22526,-0.620357427 193.939749,-0.620357427 204.211937,5.29059542 L257.540671,35.9768292 C267.812859,41.887782 267.812859,51.5052729 257.540671,57.4162258 L205.338068,87.4534902 Z" fill="#3D8677"></path>
                            <g transform="translate(0.000000, 15.606476)">
                                <path d="M228.182986,75.4339025 C228.182986,67.8894718 223.580597,59.1264355 217.904274,55.8594798 L123.324979,1.43709635 C120.78303,-0.0260107936 118.460305,-0.128753428 116.666065,0.870061046 L116.660845,0.866159427 L3.73462941,66.2689994 L112.93796,148.282332 L224.191291,83.9251261 C224.53448,83.7690613 224.86723,83.5882863 225.173882,83.3567902 L225.175187,83.3554897 L225.175187,83.3554897 C227.034673,81.9535079 228.182986,79.2028665 228.182986,75.4339025 Z" fill="#D4ECFF"></path>
                                <path d="M112.93796,148.282332 L224.191291,83.9264266 C224.53448,83.7703619 224.86723,83.5895868 225.173882,83.3580908 L225.175187,83.3567902 L225.175187,83.3567902 C227.033368,81.9548085 228.181681,79.2028665 228.181681,75.4339025 C228.181681,71.8327081 227.124711,67.959701 225.411375,64.5327789 L98.5905627,137.508661 L112.93796,148.282332 Z" fill="#396CAA"></path>
                                <path d="M105.826244,147.991011 L11.24695,93.5686278 C5.57062647,90.3016721 0.968237255,81.5386358 0.968237255,73.9955056 L0.968237255,73.9955056 C0.968237255,66.4523755 5.57062647,62.9838361 11.24695,66.2507918 L105.826244,120.673175 C111.502568,123.940131 116.104957,132.703167 116.104957,140.246297 L116.104957,140.246297 C116.104957,147.790728 111.502568,151.257967 105.826244,147.991011 Z" fill="#5793CE"></path>
                                <path d="M106.964119,120.156861 L12.3848245,65.7344776 C9.77502059,64.2336548 7.39879412,64.1686278 5.58628529,65.255879 C7.20958333,64.764275 9.15388725,65.0464921 11.24695,66.2507918 L105.826244,120.673175 C111.502568,123.940131 116.104957,132.703167 116.104957,140.246297 L116.104957,140.247598 C116.104957,144.322189 114.754383,147.19378 112.624783,148.47091 C115.406834,147.62686 117.244136,144.495161 117.244136,139.732584 L117.244136,139.731284 C117.242831,132.188154 112.641747,123.425117 106.964119,120.156861 Z" fill="#FFFFFF"></path>
                            </g>
                            <path d="M91.6602284,145.244271 L80.2893127,138.706458 C79.1579627,138.054888 78.2406167,136.308263 78.2406167,134.804839 L78.2406167,134.804839 C78.2406167,133.301416 79.1579627,132.609528 80.2893127,133.261099 L91.6602284,139.798912 C92.7915784,140.450482 93.7089245,142.197107 93.7089245,143.700531 L93.7089245,143.700531 C93.7089245,145.203955 92.7915784,145.894541 91.6602284,145.244271 Z" fill="#FFFFFF"></path>
                        </g>
                        <g transform="translate(88.733333, 58.524286)" id="Path">
                            <path d="M15.7514716,9.34047598 C19.1820588,7.31813678 19.1481314,4.09930107 15.6757873,2.14979209 C12.2034431,0.200283111 6.60932843,0.258807396 3.17874118,2.27984606 C-0.251846078,4.30218526 -0.217918627,7.52102097 3.25442549,9.47052995 C6.72676961,11.4200389 12.3221892,11.3615146 15.7514716,9.34047598 Z" fill="#5793CE"></path>
                            <path d="M34.7965157,20.0348138 C38.2271029,18.0137751 38.1931755,14.7936389 34.7208314,12.8441299 C31.2484873,10.8946209 25.6530676,10.9531452 22.2237853,12.9741838 C18.793198,14.996523 18.8271255,18.2153588 22.2994696,20.1648677 C25.7705088,22.1156773 31.3659284,22.057153 34.7965157,20.0348138 Z" fill="#FFFFFF"></path>
                            <path d="M53.8402549,30.7304521 C57.2708422,28.7094134 57.2369147,25.4892772 53.7645706,23.5397682 C50.2922265,21.5902592 44.6981118,21.6487835 41.2675245,23.6698222 C37.8369373,25.6921614 37.8708647,28.9109971 41.3432088,30.8605061 C44.8155529,32.8113156 50.4109725,32.7527913 53.8402549,30.7304521 Z" fill="#FFFFFF"></path>
                        </g>
                    </g>
                    <g id="Group" transform="translate(162.800000, 41.842697)">
                        <g>
                            <g transform="translate(3.887671, 0.000000)">
                                <path d="M34.5082658,203.522476 C34.5082658,203.522476 29.6486767,201.061665 26.665537,204.726204 C23.6811014,208.389442 19.416326,217.039369 19.2841452,222.884934 C19.1519644,228.729197 23.8897397,228.334895 26.7070055,226.951583 C29.5229753,225.568272 37.7505836,213.583042 38.2495014,211.235446 C38.7484192,208.887851 37.662463,205.711309 36.870674,205.090576 C36.0762932,204.46724 34.5082658,203.522476 34.5082658,203.522476 Z" id="Path" fill="#26385E"></path>
                                <path d="M35.5683041,202.346076 L35.793789,207.401734 C35.841737,208.476631 35.3026466,209.500776 34.3709014,210.031718 C33.5220932,210.514511 32.2897014,210.885389 30.6231863,210.617316 C26.9622959,210.026513 26.6357315,208.976341 26.3752575,203.921984 C26.1121918,198.867626 35.5683041,202.346076 35.5683041,202.346076 Z" id="Path" fill="#D4ECFF"></path>
                                <g transform="translate(0.000000, 89.791624)" id="Path">
                                    <path d="M16.720874,104.009933 C16.720874,104.009933 11.8612849,101.549122 8.87814521,105.213661 C5.89370959,108.8782 1.62763836,117.526825 1.49675342,123.37239 C1.3645726,129.216654 6.10234795,128.822351 8.9196137,127.43904 C11.7355836,126.055728 19.9631918,114.070498 20.4621096,111.722903 C20.9597315,109.374006 19.8750712,106.198766 19.0832822,105.578033 C18.2901973,104.955998 16.720874,104.009933 16.720874,104.009933 Z" fill="#26385E"></path>
                                    <path d="M17.7809123,102.834834 L18.0063973,107.890492 C18.0543452,108.965389 17.5152548,109.989534 16.5835096,110.520476 C15.7347014,111.00457 14.5023096,111.374147 12.8357945,111.106074 C9.1762,110.515271 8.84833973,109.465099 8.58656986,104.410742 C8.32609589,99.3550827 17.7809123,102.834834 17.7809123,102.834834 Z" fill="#D4ECFF"></path>
                                    <path d="M61.1388137,10.0241287 C59.7003753,-13.4739489 35.7976767,13.4817569 35.7976767,13.4817569 L19.4383562,29.5843882 L4.70667397,45.8353708 C1.82979726,49.0093095 0.491142466,53.2945822 1.04707945,57.5499244 L7.00687945,103.118523 C7.30104658,105.368519 9.21896438,107.029013 11.4789973,107.010943 C12.1178712,107.005589 12.8487534,106.94703 13.6871945,106.816897 C19.002937,105.985348 18.6115781,100.908868 18.6115781,100.908868 L17.5217342,58.2890787 L48.4598219,39.5603677 C48.458526,39.5603677 62.5759562,33.5222063 61.1388137,10.0241287 Z" fill="#173D7A"></path>
                                </g>
                                <path d="M78.9249096,108.768889 C77.4864712,85.270811 53.5837726,112.226517 53.5837726,112.226517 L37.2231562,128.329148 L22.491474,144.580131 C19.6145973,147.754069 18.2759425,152.039342 18.8318795,156.294684 L24.7916795,201.863283 C25.0858466,204.113279 27.0037644,205.773773 29.2637973,205.755703 C29.9013753,205.750349 30.6335534,205.69179 31.4719945,205.561657 C36.787737,204.730108 36.3963781,199.65493 36.3963781,199.65493 L35.3389315,158.260991 L66.2459178,138.306429 C66.2446219,138.305128 80.3633479,132.266966 78.9249096,108.768889 Z" id="Path" fill="#173D7A"></path>
                                <path d="M64.7841534,33.3400204 C82.9058849,40.8851195 82.5430356,51.6418958 82.5430356,51.6418958 C82.5430356,51.6418958 78.9935918,91.0786374 80.2052493,117.417514 C80.7119425,128.428049 21.9510877,129.267406 30.7138986,99.8938325 C41.0460329,65.2589908 37.1739123,37.2205802 42.0101753,32.9912646 C46.8464384,28.7619489 60.0956219,31.3880286 64.7841534,33.3400204 Z" id="Path" fill="#3A4B6F"></path>
                                <path d="M70.6143644,42.8774525 C69.6670685,46.5719224 64.8463562,48.5200102 59.846811,47.2264903 C54.8485616,45.9329704 51.5634795,41.8897446 52.5120712,38.1952748 C53.4593671,34.5008049 58.2800795,32.5527171 63.2796247,33.846237 C68.277874,35.1397569 71.5616603,39.1829826 70.6143644,42.8774525 Z" id="Path" fill="#FFC2B0"></path>
                                <path d="M63.3573781,47.3071726 L60.0230521,50.9430827 C59.5902247,51.4154648 59.3841781,52.0531154 59.4567479,52.6894648 L61.7491781,72.5945761 C61.8139726,73.1528458 61.6597616,73.7137181 61.3202384,74.1600735 L54.146189,83.5842901 C53.8286959,84.0020163 53.1729753,83.8874995 53.0148767,83.3864883 L49.109063,71.0420919 C48.9613315,70.5749152 48.9755863,70.0713013 49.1492356,69.6132339 L56.0200466,51.5351869 C56.1703699,51.1395832 56.204063,50.7088437 56.1172384,50.2937201 L55.1116274,45.5009295 L63.3573781,47.3071726 Z" id="Path" fill="#FFFFFF"></path>
                                <path d="M62.9401014,48.4978876 C61.8528493,48.4978876 60.7370877,48.3560429 59.6291014,48.0697508 C57.0347288,47.3982656 54.7785836,46.0110501 53.2766466,44.1618631 C51.7138027,42.2358979 51.1423151,40.0405577 51.6723342,37.9792543 C52.2023534,35.917951 53.756126,34.2704699 56.0524438,33.3452257 C58.2567534,32.4551175 60.8977781,32.3366966 63.4947425,33.0055792 C66.0891151,33.6770644 68.3452603,35.0642799 69.8471973,36.9121655 C71.411337,38.8381307 71.9815288,41.0347722 71.4528055,43.0960756 L71.4528055,43.0960756 C70.9240822,45.157379 69.3690137,46.8048601 67.0714,47.7314055 C65.8092027,48.2402247 64.4005699,48.4978876 62.9401014,48.4978876 Z M60.1824466,34.314715 C58.9435753,34.314715 57.7578356,34.5294341 56.6977973,34.957571 C54.9263151,35.6733013 53.7379836,36.8991522 53.3492164,38.4125965 C52.9604493,39.9247395 53.4127151,41.5761246 54.6178932,43.0609397 C55.8878658,44.6238345 57.8213342,45.8028376 60.0606329,46.3832298 C62.2986356,46.9636221 64.5612603,46.8699265 66.4234548,46.1151563 C68.1962329,45.3994259 69.3845644,44.1722737 69.7733315,42.6601307 L69.7733315,42.6601307 C70.1620986,41.1479877 69.7098329,39.4966027 68.5033589,38.0117875 C67.2333863,36.4488927 65.2999178,35.2698897 63.0606192,34.6894974 C62.0951808,34.4396425 61.123263,34.314715 60.1824466,34.314715 Z" id="Shape" fill="#FFFFFF"></path>
                                <path d="M57.5180959,32.5188825 C57.5180959,32.5188825 57.6748986,33.2489275 57.3612932,39.0151113 C57.2628055,40.8278611 63.5841589,42.52219 65.2182767,40.8812155 C66.8523945,39.2402411 66.1992658,37.5342002 66.5906247,31.3633034 C66.9819836,25.1937079 57.5180959,32.5188825 57.5180959,32.5188825 Z" id="Path" fill="#FFC2B0"></path>
                                <path d="M66.5893288,31.3633034 C66.5893288,31.3633034 65.0329644,37.0839408 57.3587014,39.2779796 L57.4753315,34.0791747 L66.5893288,31.3633034 Z" id="Path" fill="#EA9C92"></path>
                                <ellipse id="Oval" fill="#FFC2B0" transform="translate(57.939589, 20.343815) rotate(-67.975154) translate(-57.939589, -20.343815) " cx="57.9395894" cy="20.343815" rx="13.9989555" ry="13.9568895"></ellipse>
                                <path d="M61.1504767,20.8498754 C61.1504767,20.8498754 53.4697342,24.1539469 48.1526959,24.1916854 C42.8343616,24.2294239 44.0071425,19.7580613 44.0071425,19.7580613 L59.7936795,17.4677242 L61.1504767,20.8498754 Z" id="Path" fill="#EA9C92"></path>
                                <path d="M46.566526,21.7204637 C46.566526,21.7204637 53.2572082,18.867953 59.1262959,20.0573667 C60.5064192,20.3371522 61.785463,21.0776078 62.6731479,22.1746272 C62.9634274,22.5324923 63.3301644,22.8591256 63.7461452,22.9541226 C64.7867452,23.1909642 66.4908411,18.8549397 68.513726,18.7560388 C70.536611,18.6571379 71.8869288,20.0951052 70.228189,22.761526 C68.5694493,25.4279469 69.1305699,28.4131931 69.8938493,28.8400286 C70.6571288,29.2668641 80.1041699,22.6470092 72.9638137,8.44301532 C65.8234575,-5.76097855 46.3332658,2.28383044 43.5108164,5.16236772 C43.5108164,5.16236772 40.5393397,7.76242084 38.1225041,5.44865986 C36.4533973,7.66652482 35.4127973,25.8274545 46.566526,21.7204637 Z" id="Path" fill="#D4ECFF"></path>
                                <path d="M72.3767753,80.4545965 L72.3767753,91.1111706 C72.3767753,92.3318161 71.8648986,93.4965046 70.9655507,94.3189438 L49.1660822,114.27741 L51.6425288,118.081191 L81.6760849,98.3062125 C83.0199233,97.3276139 83.886874,95.8219775 84.0605233,94.1640858 L86.1145096,74.3891073 L72.3767753,80.4545965 Z" id="Path" fill="#FFC2B0"></path>
                                <path d="M81.0087014,46.3129581 C81.0087014,46.3129581 87.6216301,56.3006496 90.0864137,82.5913769 C90.0864137,82.5913769 78.7888411,86.2611216 72.3780712,84.1776956 C65.9647096,82.0942697 81.0087014,46.3129581 81.0087014,46.3129581 Z" id="Path" fill="#3A4B6F"></path>
                                <path d="M71.1690055,58.9410439 C71.1690055,58.9410439 68.5798164,72.856143 68.4320849,79.396617 C68.3919123,81.1937508 69.4843479,82.8165066 71.1690055,83.4281307 L71.1690055,83.4281307 L71.1690055,58.9410439 Z" id="Path" fill="#26385E"></path>
                            </g>
                            <g transform="translate(3.887671, 105.407559)" id="Path">
                                <path d="M65.5137397,22.7263902 L60.6956192,22.0874382 L29.5929534,4.05493769 C28.5951178,3.47714811 26.854737,3.54872114 25.7026904,4.21630235 L3.66348219,16.9888355 L0.750320548,16.6023412 L0.750320548,19.514713 L0.752912329,19.514713 C0.733473973,19.8986047 0.951183562,20.2668805 1.42159178,20.5401593 L36.669811,40.9762125 C37.6676466,41.554002 39.4080274,41.482429 40.560074,40.8148478 L64.5612603,26.9036527 C65.2092055,26.5288703 65.5318822,26.0447763 65.5124438,25.5906129 L65.5124438,25.5906129 L65.5124438,22.7263902 L65.5137397,22.7263902 Z" fill="#5793CE"></path>
                                <path d="M42.1436521,11.3319632 L39.9341589,10.0514566 L15.6401014,10.0514566 L3.66348219,16.9901369 L0.750320548,16.6036425 L0.750320548,19.5160143 L0.752912329,19.5160143 C0.733473973,19.899906 0.951183562,20.2681818 1.42159178,20.5414607 L36.669811,40.9775138 C37.1972384,41.2833258 37.9320082,41.4056507 38.6771452,41.3548989 L42.1436521,11.3319632 Z" fill="#396CAA"></path>
                                <path d="M2.04232329,16.7754178 L0.749024658,16.6036425 L0.749024658,19.5160143 L0.751616438,19.5160143 C0.732178082,19.899906 0.949887671,20.2681818 1.42029589,20.5414607 L2.0410274,20.9019285 L2.0410274,16.7754178 L2.04232329,16.7754178 Z" fill="#5793CE"></path>
                                <path d="M37.0248849,41.1440838 C37.969589,41.5045516 39.3212027,41.4251706 40.3307014,40.938474 L40.3307014,35.9830174 L37.0248849,35.9830174 L37.0248849,41.1440838 Z" fill="#5793CE"></path>
                                <path d="M36.669811,38.0677446 L1.42159178,17.6316915 C0.425052055,17.0539019 0.549457534,16.0440715 1.70150411,15.3764903 L25.7026904,1.4652952 C26.8534411,0.797713994 28.5951178,0.724839632 29.5929534,1.30262921 L64.8411726,21.7386823 C65.8377123,22.3164719 65.7133068,23.3263023 64.5612603,23.9938836 L40.560074,37.9050787 C39.4080274,38.5726599 37.6663507,38.6455342 36.669811,38.0677446 Z" fill="#FFFFFF"></path>
                                <path d="M36.0737014,34.9692829 L6.76454795,17.9765434 C5.93517808,17.4963534 6.03884932,16.6556956 6.99651233,16.1013299 L19.8582247,8.838619 C20.8158877,8.28425332 22.2633973,8.22309091 23.0927671,8.7032809 L52.4019205,25.6960204 C53.2312904,26.1762104 53.1276192,27.0168682 52.1699562,27.5712339 L39.3082438,34.8339448 C38.3505808,35.3896118 36.9030712,35.4507743 36.0737014,34.9692829 Z" fill="#D4ECFF"></path>
                            </g>
                            <path d="M30.9523425,106.201369 L30.5881973,108.643961 C30.2771836,110.724784 30.331611,112.844648 30.7462959,114.905951 L31.1804192,117.058347 C31.4253425,118.272486 32.3817096,119.214648 33.594663,119.435873 L33.594663,119.435873 C34.5419589,119.60895 35.4374192,118.940067 35.5449781,117.978386 L36.1268329,112.757459 C36.1268329,112.757459 37.4564164,114.507745 38.0991781,114.507745 C38.7406438,114.507745 37.3799589,109.279009 35.9272658,106.31979 C34.4758685,103.361871 30.9523425,106.201369 30.9523425,106.201369 Z" id="Path" fill="#FFC2B0"></path>
                            <path d="M42.9004521,67.3866619 L39.1177479,74.9031318 C38.2235836,76.6807457 37.6974521,78.6210255 37.5704548,80.6094545 L35.9285616,106.321091 L30.9523425,106.20267 L28.6936055,77.3275056 C28.6236274,76.436096 28.6676877,75.5394811 28.8218986,74.6584821 L31.4020164,60.0159408 L42.9004521,67.3866619 Z" id="Path" fill="#FFC2B0"></path>
                            <g transform="translate(0.000000, 89.791624)" id="Path">
                                <path d="M39.3639671,55.6460817 L36.4080411,51.7720286 L5.32740548,33.7017896 C4.33086575,33.1226987 3.52482192,31.5702145 3.52611781,30.2350521 L3.55333151,4.68217773 L1.76629863,2.33978754 L3.4457726,1.36379162 L3.44706849,1.36639428 C3.76844932,1.15818182 4.19609315,1.16338713 4.66520548,1.43666599 L39.8888027,21.9156629 C40.8853425,22.4947538 41.6913863,24.047238 41.690092,25.3824004 L41.6602849,53.2112972 C41.658989,53.9621634 41.4024027,54.4852972 41.0006767,54.694811 L41.0006767,54.694811 L39.3639671,55.6460817 Z" fill="#173D7A"></path>
                                <path d="M17.8703288,40.9931297 L15.6621315,39.7087191 L3.5403726,18.5660449 L3.55333151,4.6808764 L1.76629863,2.33848621 L3.4457726,1.3624903 L3.44706849,1.36509295 C3.76844932,1.15688049 4.19609315,1.1620858 4.66520548,1.43536466 L39.8888027,21.9143616 C40.4149342,22.2201736 40.8879342,22.7992646 41.2170904,23.4733524 L17.8703288,40.9931297 Z" fill="#396CAA"></path>
                                <path d="M2.55938356,3.37954852 L1.76629863,2.33978754 L3.4457726,1.36379162 L3.44706849,1.36639428 C3.76844932,1.15818182 4.19609315,1.16338713 4.66520548,1.43666599 L5.28593699,1.79713381 L2.55938356,3.37954852 Z" fill="#5793CE"></path>
                                <path d="M40.2088877,22.1407926 C40.9916055,22.7836486 41.5980822,23.9990889 41.6797233,25.1195322 L38.2378384,27.1157692 L36.5881699,24.2398345 L40.2088877,22.1407926 Z" fill="#274F89"></path>
                                <path d="M38.2119205,22.8903575 L2.98832329,2.41136057 C1.99178356,1.83226966 1.18314795,2.4451951 1.18055616,3.77905618 L1.15074912,31.607953 C1.14945479,32.9431154 1.95549863,34.4955996 2.95203836,35.0746905 L38.1756356,55.5536874 C39.1721753,56.1327783 39.980811,55.5198529 39.9834027,54.1859918 L40.0132098,26.357095 C40.0145041,25.0219326 39.2084603,23.4694484 38.2119205,22.8903575 Z" fill="#5793CE"></path>
                            </g>
                            <path d="M55.5302,118.081191 L54.9651918,119.254989 C54.3159507,120.607068 53.2934932,121.744429 52.0209288,122.531732 L48.5220247,124.697142 C47.4334767,125.37123 46.0546493,125.425886 44.9505507,124.780427 C44.9103781,124.757003 44.8715014,124.733579 44.8313288,124.708854 C43.7194548,124.00874 43.6183753,122.405504 44.533274,121.462041 L48.1889808,117.68819 C48.1889808,117.68819 46.1349945,119.268002 45.5596192,118.631653 C45.1371589,118.164476 47.5514027,115.888454 49.404526,115.814278 C51.2576493,115.740102 53.0511616,114.27741 53.0511616,114.27741 L55.5302,118.081191 Z" id="Path" fill="#FFC2B0"></path>
                            <path d="M46.2606959,32.9366088 C46.2606959,32.9366088 32.8573014,47.5817528 27.4508466,61.0166619 C27.4508466,61.0166619 32.034411,69.3087232 43.2529342,72.5620429 C54.4714575,75.8153626 46.2606959,32.9366088 46.2606959,32.9366088 Z" id="Path" fill="#3A4B6F"></path>
                            <path d="M40.7285397,71.6927559 L42.9004521,50.6190521 L37.7816849,70.3641001 C38.6939918,70.8416874 39.6814603,71.2854402 40.7285397,71.6927559 Z" id="Path" fill="#26385E"></path>
                            <path d="M56.298663,29.9799918 L52.6973836,28.9857773 C52.6973836,28.9857773 54.4170301,31.7016486 56.9271699,32.3939551 C59.4373096,33.0862615 59.8273726,30.9520838 59.8273726,30.9520838 L56.298663,29.9799918 Z" id="Path" fill="#FFFFFF"></path>
                        </g>
                        <path d="M75.5361562,24.1916854 C75.5361562,25.3043207 74.6381041,26.206141 73.5301178,26.206141 C72.4221315,26.206141 71.5240795,25.3043207 71.5240795,24.1916854 C71.5240795,23.0790501 72.4221315,22.1772298 73.5301178,22.1772298 C74.6381041,22.1772298 75.5361562,23.0790501 75.5361562,24.1916854 Z" id="Path" fill="#FFFFFF"></path>
                    </g>
                    <g id="Group" transform="translate(308.000000, 178.382022)">
                        <g>
                            <ellipse id="Oval" fill="#173D7A" opacity="0.5" cx="42.7414" cy="55.3829709" rx="37.1826" ry="21.5728775"></ellipse>
                            <path d="M85.0421003,36.9324319 L85.0421003,24.9969987 L82.7996,24.9969987 C80.7859,21.5127823 77.4332,18.2323672 72.6518,15.4588421 C56.1314,5.87365454 29.3475,5.87365454 12.8284,15.4588421 C8.047,18.2323672 4.6943,21.5140887 2.6806,24.9969987 L0.442,24.9969987 L0.442,36.8684174 L0.4446,36.8684174 C0.416,43.170577 4.5409,49.4792687 12.8297,54.2881927 C29.3501,63.8733803 56.134,63.8733803 72.6531,54.2894991 C80.9133,49.4962521 85.0434,43.2136888 85.0421003,36.9324319 Z" id="Path" fill="#3D8677"></path>
                            <ellipse id="Oval" fill="#3C9A80" cx="42.7414" cy="24.9956922" rx="42.302" ry="24.5436717"></ellipse>
                            <path d="M72.6531,42.3514531 C56.134,51.9366406 29.3501,51.9366406 12.8297,42.3514531 C4.9127,37.758088 0.832,31.795597 0.5031,25.7769301 C0.1456,32.3168577 4.2263,38.9221063 12.8297,43.9139288 C29.3501,53.4991164 56.134,53.4991164 72.6531,43.9139288 C81.2552,38.9234127 85.3359,32.3181642 84.9784,25.7782365 C84.6495,31.795597 80.5701,37.758088 72.6531,42.3514531 Z" id="Path" fill="#FFFFFF"></path>
                        </g>
                        <path d="M22.3522,33.1216111 C21.6411,32.7087831 21.2355,32.1470234 21.2380876,31.5552161 L21.281,15.564662 C21.2836,14.3457741 22.9918,13.3581223 25.0939,13.3594274 C27.1973,13.3594274 28.8951,14.3509998 28.8951,15.5725005 L28.86,28.8326414 L67.1541,24.1203923 C69.212,23.8669472 71.2322,24.6298953 71.669,25.8226547 C72.1058,27.0154142 70.7915,28.1885774 68.7349,28.4420225 L25.8362,33.7212569 C24.7104,33.8597372 23.5391,33.696435 22.646,33.2757684 C22.5433,33.227431 22.4445,33.1764807 22.3522,33.1216111 Z" id="Path" fill="#FFFFFF"></path>
                    </g>
                    <g id="Group" transform="translate(83.600000, 323.730337)">
                        <g id="Path">
                            <polygon fill="#173D7A" opacity="0.5" points="23.45112 67.8510282 0.7062 55.0369413 23.45112 42.2228544 46.19604 55.0369413"></polygon>
                            <polygon fill="#26385E" points="46.19604 38.7668637 23.45112 51.5809506 23.45112 25.9540649 46.19604 13.139978"></polygon>
                            <polygon fill="#4A659E" points="23.45112 25.9540649 0.70752 13.139978 23.45112 0.325891032 46.19472 13.139978"></polygon>
                            <polygon fill="#4A659E" points="23.45112 51.5809506 0.70752 38.7668637 0.70752 13.139978 23.45112 25.9540649"></polygon>
                        </g>
                        <polygon id="Path" fill="#FFFFFF" points="15.26052 37.7363782 8.89812 34.152865 8.89812 26.9845503 15.26052 30.5693517"></polygon>
                    </g>
                </g>
            </g>
        </g>
    </g>
</svg>