<svg data-v-423bf9ae="" xmlns="http://www.w3.org/2000/svg" viewBox="0 0 302.5996163176814 60" class="font"><!----><!----><!----><g data-v-423bf9ae="" id="c82af6c4-4810-4a02-99e4-b8d6e202334b" fill="black" transform="matrix(4.192872047424316,0,0,4.192872047424316,-2.935009002685547,2.012580394744873)"><path d="M3.35 10.57C4.61 10.57 5.38 9.93 5.75 9.04L5.75 9.20L5.77 10.78C5.77 12.35 5.04 12.96 3.86 12.96C2.91 12.96 2.32 12.57 2.16 11.87L1.02 12.04C1.27 13.10 2.14 13.83 3.84 13.83C5.89 13.83 6.90 12.81 6.90 10.75L6.89 4.63L6.93 3.14L5.85 3.14L5.80 4.47C5.52 3.64 4.76 3.00 3.47 3.00C1.47 3.00 0.70 4.44 0.70 6.82C0.70 9.30 1.47 10.57 3.35 10.57ZM5.75 6.80C5.75 8.89 4.76 9.72 3.72 9.72C2.45 9.72 1.88 8.97 1.88 6.80C1.88 4.72 2.45 3.86 3.75 3.86C4.83 3.86 5.75 4.73 5.75 6.80ZM12.03 10.64C13.94 10.64 14.55 9.73 14.88 8.90L13.92 8.62C13.65 9.34 13.23 9.79 12.05 9.79C10.54 9.79 10.00 8.64 10.00 7.06L10.00 7.04L15.04 7.04C15.05 6.89 15.06 6.66 15.06 6.52C15.06 4.59 14.45 3.00 12.00 3.00C10.16 3.00 8.79 4.09 8.79 6.76C8.79 9.30 9.86 10.64 12.03 10.64ZM12.00 3.84C13.26 3.84 13.87 4.54 13.87 6.08L13.87 6.17L10.00 6.17C10.08 4.34 11.02 3.84 12.00 3.84ZM16.39 3.99L17.28 3.99L17.28 9.20C17.28 10.01 17.74 10.63 18.55 10.63L19.92 10.63L19.92 9.67L19.11 9.67C18.56 9.67 18.41 9.42 18.41 8.96L18.41 3.99L19.80 3.99L19.80 3.14L18.41 3.14L18.41 0.99L17.28 0.99L17.28 3.14L16.39 3.14ZM21.18 3.99L22.22 3.99L22.22 10.50L23.35 10.50L23.35 3.99L24.81 3.99L24.81 3.14L23.35 3.14L23.35 0.98C23.35 0.66 23.44 0.48 23.77 0.48L24.79 0.48L24.79-0.48L23.66-0.48C22.76-0.48 22.25 0.07 22.25 0.95L22.25 3.14L21.18 3.14ZM27.62 3.14L26.49 3.14L26.49 8.06C26.49 9.88 27.20 10.64 28.81 10.64C30.21 10.64 30.87 9.97 31.19 9.14L31.26 10.50L32.34 10.50C32.33 9.87 32.31 9.46 32.31 8.93L32.31 3.14L31.18 3.14L31.18 7.41C31.18 8.90 30.39 9.76 29.19 9.76C28.04 9.76 27.62 9.30 27.62 7.84ZM39.38 10.50L40.52 10.50L40.52 5.57C40.52 3.74 39.72 3.00 38.12 3.00C36.78 3.00 36.08 3.58 35.74 4.58C35.74 4.03 35.71 3.50 35.71 3.14L34.66 3.14C34.66 3.14 34.69 4.23 34.69 4.72L34.69 10.50L35.83 10.50L35.83 6.24C35.83 4.72 36.61 3.86 37.80 3.86C38.93 3.86 39.38 4.33 39.38 5.78ZM45.05 10.64C46.44 10.64 47.11 10.05 47.42 9.10C47.42 9.62 47.45 10.19 47.46 10.50L48.58 10.50C48.55 10.00 48.52 9.38 48.52 8.99L48.52-0.39L47.39-0.39L47.39 3.33C47.39 3.64 47.39 4.02 47.40 4.40C47.07 3.47 46.16 3.00 45.15 3.00C43.27 3.00 42.34 4.24 42.34 6.83C42.34 9.41 43.20 10.64 45.05 10.64ZM45.35 9.76C44.06 9.76 43.51 8.79 43.51 6.79C43.51 4.80 44.13 3.84 45.36 3.84C46.65 3.84 47.39 4.61 47.39 6.71C47.39 8.93 46.61 9.76 45.35 9.76ZM60.98 9.73L60.33 9.73C60.02 9.73 59.89 9.60 59.89 9.23L59.89 5.50C59.89 3.85 58.94 3.00 57.22 3.00C55.30 3.00 54.60 3.88 54.42 4.97L55.54 5.10C55.69 4.19 56.22 3.86 57.16 3.86C58.21 3.86 58.79 4.35 58.79 5.46L58.79 6.06L57.40 6.06C55.26 6.06 54.08 6.69 54.08 8.43C54.08 9.60 54.82 10.64 56.42 10.64C57.51 10.64 58.45 10.28 58.83 9.09L58.83 9.45C58.83 10.22 59.30 10.64 60.03 10.64C60.42 10.64 60.72 10.63 60.98 10.60ZM56.69 9.80C55.68 9.80 55.20 9.16 55.20 8.36C55.20 7.18 56.10 6.85 57.39 6.85L58.79 6.85L58.79 7.38C58.79 8.53 58.35 9.80 56.69 9.80ZM65.27 10.64C67.02 10.64 67.91 9.51 68.08 8.32L66.95 8.23C66.79 9.23 66.16 9.73 65.24 9.73C63.77 9.73 63.29 8.51 63.29 6.76C63.29 4.82 63.81 3.89 65.23 3.89C66.21 3.89 66.74 4.41 66.88 5.25L68.04 5.18C67.80 3.93 66.91 3.00 65.25 3.00C63.66 3.00 62.10 3.88 62.10 6.79C62.10 8.97 62.96 10.64 65.27 10.64ZM69.34 3.99L70.22 3.99L70.22 9.20C70.22 10.01 70.69 10.63 71.50 10.63L72.87 10.63L72.87 9.67L72.06 9.67C71.51 9.67 71.36 9.42 71.36 8.96L71.36 3.99L72.74 3.99L72.74 3.14L71.36 3.14L71.36 0.99L70.22 0.99L70.22 3.14L69.34 3.14Z"></path></g><!----><!----></svg>